{
   "accessors" : [
      {
         "bufferView" : 2,
         "byteOffset" : 0,
         "componentType" : 5126,
         "count" : 9972,
         "max" : [ 1, 0.3250369727611542, 0.06190747767686844, 1 ],
         "min" : [ 0.1939721554517746, 0.08919350802898407, 0, 1 ],
         "name" : "accessor_color_m0-PolyPaper20_-19388",
         "type" : "VEC4"
      },
      {
         "bufferView" : 2,
         "byteOffset" : 159552,
         "componentType" : 5126,
         "count" : 9980,
         "max" : [ 1, 0.3250369727611542, 0.06190747767686844, 1 ],
         "min" : [ 0.1939721554517746, 0.08919350802898407, 0, 1 ],
         "name" : "accessor_color_m1-PolyPaper13_-19390",
         "type" : "VEC4"
      },
      {
         "bufferView" : 2,
         "byteOffset" : 319232,
         "componentType" : 5126,
         "count" : 172,
         "max" : [ 0.1939721554517746, 0.08919350802898407, 0.06190747767686844, 1 ],
         "min" : [ 0.1939721554517746, 0.08919350802898407, 0.06190747767686844, 1 ],
         "name" : "accessor_color_m2-PolyPaper20_-19462",
         "type" : "VEC4"
      },
      {
         "bufferView" : 0,
         "byteOffset" : 0,
         "componentType" : 5123,
         "count" : 11352,
         "max" : [ 9971 ],
         "min" : [ 0 ],
         "name" : "accessor_indices_0_m0-PolyPaper20_-19388",
         "type" : "SCALAR"
      },
      {
         "bufferView" : 0,
         "byteOffset" : 22704,
         "componentType" : 5123,
         "count" : 11436,
         "max" : [ 9979 ],
         "min" : [ 0 ],
         "name" : "accessor_indices_0_m1-PolyPaper13_-19390",
         "type" : "SCALAR"
      },
      {
         "bufferView" : 0,
         "byteOffset" : 45576,
         "componentType" : 5123,
         "count" : 246,
         "max" : [ 171 ],
         "min" : [ 0 ],
         "name" : "accessor_indices_0_m2-PolyPaper20_-19462",
         "type" : "SCALAR"
      },
      {
         "bufferView" : 1,
         "byteOffset" : 119664,
         "componentType" : 5126,
         "count" : 9972,
         "max" : [ 0.9996858, 0.9999906, 0.9998141 ],
         "min" : [ -0.997622, -0.9995186, -0.9999642 ],
         "name" : "accessor_normal_m0-PolyPaper20_-19388",
         "type" : "VEC3"
      },
      {
         "bufferView" : 1,
         "byteOffset" : 359088,
         "componentType" : 5126,
         "count" : 9980,
         "max" : [ 0.9990436, 0.9997153, 0.9999391 ],
         "min" : [ -0.9991082, -0.9997524, -0.9987328 ],
         "name" : "accessor_normal_m1-PolyPaper13_-19390",
         "type" : "VEC3"
      },
      {
         "bufferView" : 1,
         "byteOffset" : 480912,
         "componentType" : 5126,
         "count" : 172,
         "max" : [ 0.965865, 0.9078146, 0.890887 ],
         "min" : [ -0.8946921, -0.959689, -0.9686380999999999 ],
         "name" : "accessor_normal_m2-PolyPaper20_-19462",
         "type" : "VEC3"
      },
      {
         "bufferView" : 1,
         "byteOffset" : 0,
         "componentType" : 5126,
         "count" : 9972,
         "max" : [ 3.266464, 2.330654, 1.481037 ],
         "min" : [ -2.282891, -3.57577, -2.28338 ],
         "name" : "accessor_position_m0-PolyPaper20_-19388",
         "type" : "VEC3"
      },
      {
         "bufferView" : 1,
         "byteOffset" : 239328,
         "componentType" : 5126,
         "count" : 9980,
         "max" : [ 0.7018551, 1.828649, 1.663028 ],
         "min" : [ -2.588192, -1.993542, -2.778446 ],
         "name" : "accessor_position_m1-PolyPaper13_-19390",
         "type" : "VEC3"
      },
      {
         "bufferView" : 1,
         "byteOffset" : 478848,
         "componentType" : 5126,
         "count" : 172,
         "max" : [ 0.2471509, 1.722377, -0.210346 ],
         "min" : [ -0.2022738, -0.211015, -1.20762 ],
         "name" : "accessor_position_m2-PolyPaper20_-19462",
         "type" : "VEC3"
      }
   ],
   "asset" : {
      "copyright" : "Unknown",
      "extras" : {
         "GOOGLE_processor_version" : 294144208
      },
      "generator" : "glTF 1-to-2 Upgrader for Google Blocks",
      "version" : "2.0"
   },
   "bufferViews" : [
      {
         "buffer" : 0,
         "byteLength" : 46068,
         "byteOffset" : 0,
         "name" : "ushortBufferView",
         "target" : 34963
      },
      {
         "buffer" : 0,
         "byteLength" : 482976,
         "byteOffset" : 46068,
         "byteStride" : 12,
         "name" : "vec3BufferView",
         "target" : 34962
      },
      {
         "buffer" : 0,
         "byteLength" : 321984,
         "byteOffset" : 529044,
         "byteStride" : 16,
         "name" : "vec4BufferView",
         "target" : 34962
      }
   ],
   "buffers" : [
      {
         "byteLength" : 851028,
         "name" : "model",
         "uri" : "model.bin"
      }
   ],
   "cameras" : [
      {
         "perspective" : {
            "yfov" : 0.7853981633974483,
            "znear" : 0.1000000014901161
         },
         "type" : "perspective"
      }
   ],
   "extensions" : {
      "KHR_lights_punctual" : {
         "lights" : [
            {
               "color" : [ 1, 0.9333333333333333, 0.8666666666666667 ],
               "intensity" : 0.25,
               "name" : "headLight",
               "type" : "directional"
            },
            {
               "color" : [ 1, 0.9333333333333333, 0.8666666666666667 ],
               "intensity" : 0.324999988079071,
               "name" : "keyLight",
               "type" : "directional"
            }
         ]
      }
   },
   "extensionsUsed" : [ "GOOGLE_backgrounds", "GOOGLE_camera_settings", "KHR_lights_punctual" ],
   "extras" : {
      "GOOGLE_initial_camera_motion" : {
         "motionPath" : "FULL_ROTATION"
      },
      "GOOGLE_lighting_rig" : {
         "disableShadows" : false
      }
   },
   "materials" : [
      {
         "alphaMode" : "OPAQUE",
         "doubleSided" : false,
         "name" : "BlocksPaper",
         "pbrMetallicRoughness" : {
            "baseColorFactor" : [ 1, 1, 1, 1 ],
            "metallicFactor" : 0,
            "roughnessFactor" : 0.6
         }
      },
      {
         "alphaMode" : "BLEND",
         "doubleSided" : false,
         "name" : "BlocksGlass",
         "pbrMetallicRoughness" : {
            "baseColorFactor" : [ 0.2, 0.2, 1, 0.3 ],
            "metallicFactor" : 1,
            "roughnessFactor" : 0.4
         }
      },
      {
         "alphaMode" : "OPAQUE",
         "doubleSided" : true,
         "name" : "BlocksGem",
         "pbrMetallicRoughness" : {
            "baseColorFactor" : [ 1, 0.4, 1, 1 ],
            "metallicFactor" : 0,
            "roughnessFactor" : 0.1
         }
      }
   ],
   "meshes" : [
      {
         "name" : "mesh_m0-PolyPaper20_-19388",
         "primitives" : [
            {
               "attributes" : {
                  "COLOR_0" : 0,
                  "NORMAL" : 6,
                  "POSITION" : 9
               },
               "indices" : 3,
               "material" : 0,
               "mode" : 4
            }
         ]
      },
      {
         "name" : "mesh_m1-PolyPaper13_-19390",
         "primitives" : [
            {
               "attributes" : {
                  "COLOR_0" : 1,
                  "NORMAL" : 7,
                  "POSITION" : 10
               },
               "indices" : 4,
               "material" : 0,
               "mode" : 4
            }
         ]
      },
      {
         "name" : "mesh_m2-PolyPaper20_-19462",
         "primitives" : [
            {
               "attributes" : {
                  "COLOR_0" : 2,
                  "NORMAL" : 8,
                  "POSITION" : 11
               },
               "indices" : 5,
               "material" : 0,
               "mode" : 4
            }
         ]
      }
   ],
   "nodes" : [
      {
         "mesh" : 1,
         "name" : "node_MeshObject-1671485248-PolyPaper13"
      },
      {
         "mesh" : 0,
         "name" : "node_MeshObject2104761984-PolyPaper20"
      },
      {
         "mesh" : 2,
         "name" : "node_MeshObject589827840-PolyPaper20"
      },
      {
         "children" : [ 4 ]
      },
      {
         "children" : [ 5 ],
         "extras" : {
            "isTransformNode" : 1
         },
         "translation" : [ -0.1792820187061842, -0.3557200386962231, -0.6799795568315057 ]
      },
      {
         "children" : [ 1, 0, 2 ],
         "translation" : [ 0.1792820187061842, 0.3557200386962231, 0.6799795568315057 ]
      },
      {
         "camera" : 0,
         "children" : [ 7 ],
         "rotation" : [
            -0.05022077375241635,
            0.1520266403048462,
            0.007734912639661753,
            0.9870693722569789
         ],
         "translation" : [ 1.780316829681396, 0.2434019446372986, 6.575473308563232 ]
      },
      {
         "extensions" : {
            "KHR_lights_punctual" : {
               "light" : 0
            }
         },
         "extras" : {
            "isHeadLight" : 1
         },
         "name" : "headLightNode",
         "translation" : [ -4.304957932984761, 2.152478966492381, 2.152478966492381 ]
      },
      {
         "extensions" : {
            "KHR_lights_punctual" : {
               "light" : 1
            }
         },
         "extras" : {
            "isKeyLight" : 1
         },
         "name" : "keyLightNode",
         "rotation" : [ -0.7505326882858236, -0.3752663441429118, 0, 0.5439447166468927 ],
         "scale" : [ 0, 0, 4.348007512314609 ],
         "translation" : [ -4.583792598461494, 9.004398843415077, -4.912311273486266 ]
      }
   ],
   "scene" : 0,
   "scenes" : [
      {
         "extensions" : {
            "GOOGLE_backgrounds" : {
               "color" : [ 0.01176470588235294, 0.6627450980392157, 0.9568627450980393 ]
            },
            "GOOGLE_camera_settings" : {}
         },
         "extras" : {
            "GOOGLE_camera_index" : {
               "cameraIndex" : 0,
               "nodeIndex" : 6
            },
            "GOOGLE_geometry_data" : {
               "stats" : {
                  "centroid" : [ -0.2357850861468842, 0.3083838187858576, -0.5643037611716559 ],
                  "radius" : 4.304957932984761,
                  "stdev" : 2.09454398558587
               },
               "visualCenterPoint" : [ -0.1792820187061842, -0.3557200386962231, -0.6799795568315057 ]
            },
            "GOOGLE_hemi_light" : {
               "groundColor" : [ 0.01176470588235294, 0.6627450980392157, 0.9568627450980393 ]
            }
         },
         "name" : "defaultScene",
         "nodes" : [ 3, 6, 8 ]
      }
   ]
}
