{
   "accessors" : [
      {
         "bufferView" : 0,
         "componentType" : 5123,
         "count" : 1566,
         "max" : [ 1565 ],
         "min" : [ 0 ],
         "name" : "buffer-0-accessor-indices-buffer-0-mesh-0",
         "type" : "SCALAR"
      },
      {
         "bufferView" : 2,
         "componentType" : 5126,
         "count" : 1566,
         "max" : [ 1.10028600692749, 0.5564280152320862, 0.810276985168457 ],
         "min" : [ -0.9044809937477112, -0.3072690069675446, -0.7957460284233093 ],
         "name" : "buffer-0-accessor-position-buffer-0-mesh-0",
         "type" : "VEC3"
      },
      {
         "bufferView" : 2,
         "byteOffset" : 18792,
         "componentType" : 5126,
         "count" : 1566,
         "max" : [ 0.9884999990463257, 1, 0.9803000092506409 ],
         "min" : [ -0.9901000261306763, -0.3707000017166138, -0.9972000122070312 ],
         "name" : "buffer-0-accessor-normal-buffer-0-mesh-0",
         "type" : "VEC3"
      },
      {
         "bufferView" : 1,
         "componentType" : 5126,
         "count" : 1566,
         "max" : [ 0.984499990940094, 0 ],
         "min" : [ 0, -0.984000027179718 ],
         "name" : "buffer-0-accessor-texcoord-buffer-0-mesh-0",
         "type" : "VEC2"
      },
      {
         "bufferView" : 3,
         "componentType" : 5126,
         "count" : 0,
         "max" : [ 0, 0, 0, 0 ],
         "min" : [ 0, 0, 0, 0 ],
         "name" : "buffer-0-accessor-color-buffer-0-mesh-0",
         "type" : "VEC4"
      }
   ],
   "asset" : {
      "extras" : {
         "GOOGLE_processor_version" : 294144208
      },
      "generator" : "Obj2GltfConverter",
      "version" : "2.0"
   },
   "bufferViews" : [
      {
         "buffer" : 0,
         "byteLength" : 3132,
         "byteStride" : 0,
         "name" : "buffer-0-bufferview-ushort",
         "target" : 34963
      },
      {
         "buffer" : 0,
         "byteLength" : 12528,
         "byteOffset" : 3136,
         "byteStride" : 8,
         "name" : "buffer-0-bufferview-vec2",
         "target" : 34962
      },
      {
         "buffer" : 0,
         "byteLength" : 37584,
         "byteOffset" : 15672,
         "byteStride" : 12,
         "name" : "buffer-0-bufferview-vec3",
         "target" : 34962
      },
      {
         "buffer" : 0,
         "byteLength" : 1,
         "name" : "buffer-0-bufferview-vec4"
      }
   ],
   "buffers" : [
      {
         "byteLength" : 53264,
         "name" : "buffer-0",
         "uri" : "PUSHILIN_volcano.bin"
      }
   ],
   "cameras" : [
      {
         "perspective" : {
            "yfov" : 0.7853981633974483,
            "znear" : 0.1000000014901161
         },
         "type" : "perspective"
      }
   ],
   "extensions" : {
      "KHR_lights_punctual" : {
         "lights" : [
            {
               "color" : [ 1, 0.9333333333333333, 0.8666666666666667 ],
               "intensity" : 0.25,
               "name" : "headLight",
               "type" : "directional"
            },
            {
               "color" : [ 1, 0.9333333333333333, 0.8666666666666667 ],
               "intensity" : 0.324999988079071,
               "name" : "keyLight",
               "type" : "directional"
            }
         ]
      }
   },
   "extensionsUsed" : [ "GOOGLE_backgrounds", "GOOGLE_camera_settings", "KHR_lights_punctual" ],
   "extras" : {
      "GOOGLE_initial_camera_motion" : {
         "motionPath" : "FULL_ROTATION"
      },
      "GOOGLE_lighting_rig" : {
         "disableShadows" : false
      }
   },
   "images" : [
      {
         "mimeType" : "image/png",
         "name" : "None-image",
         "uri" : "PUSHILIN_volcano.png"
      }
   ],
   "materials" : [
      {
         "alphaMode" : "BLEND",
         "doubleSided" : true,
         "name" : "None",
         "pbrMetallicRoughness" : {
            "baseColorFactor" : [ 0.8, 0.8, 0.8, 1 ],
            "baseColorTexture" : {
               "index" : 0
            },
            "metallicFactor" : 0
         }
      }
   ],
   "meshes" : [
      {
         "name" : "buffer-0-mesh-0",
         "primitives" : [
            {
               "attributes" : {
                  "NORMAL" : 2,
                  "POSITION" : 1,
                  "TEXCOORD_0" : 3
               },
               "indices" : 0,
               "material" : 0
            }
         ]
      }
   ],
   "nodes" : [
      {
         "mesh" : 0,
         "name" : "node-0"
      },
      {
         "children" : [ 2 ]
      },
      {
         "children" : [ 3 ],
         "extras" : {
            "isTransformNode" : 1
         },
         "translation" : [ 0.05011231336495161, -0.03411430627079878, 0.0013693028057063 ]
      },
      {
         "children" : [ 0 ],
         "translation" : [ -0.05011231336495161, 0.03411430627079878, -0.0013693028057063 ]
      },
      {
         "camera" : 0,
         "children" : [ 5 ],
         "rotation" : [
            -0.221924054279278,
            -0.2518950318538157,
            -0.05946428056213491,
            0.9400864887853888
         ],
         "translation" : [ -1.265663494681095, 1.281462352651896, 2.279997063655292 ]
      },
      {
         "extensions" : {
            "KHR_lights_punctual" : {
               "light" : 0
            }
         },
         "extras" : {
            "isHeadLight" : 1
         },
         "name" : "headLightNode",
         "translation" : [ -1.271291769841281, 0.6356458849206407, 0.6356458849206407 ]
      },
      {
         "extensions" : {
            "KHR_lights_punctual" : {
               "light" : 1
            }
         },
         "extras" : {
            "isKeyLight" : 1
         },
         "name" : "keyLightNode",
         "rotation" : [ -0.7505326882858236, -0.3752663441429118, 0, 0.5439447166468927 ],
         "scale" : [ 0, 0, 1.284004687539694 ],
         "translation" : [ -1.277039388465202, 2.623218617549658, -1.285753022417048 ]
      }
   ],
   "samplers" : [
      {
         "name" : "None-sampler",
         "wrapS" : 10497,
         "wrapT" : 10497
      }
   ],
   "scene" : 0,
   "scenes" : [
      {
         "extensions" : {
            "GOOGLE_backgrounds" : {
               "color" : [ 0.4745098039215686, 0.3333333333333333, 0.2823529411764706 ]
            },
            "GOOGLE_camera_settings" : {}
         },
         "extras" : {
            "GOOGLE_camera_index" : {
               "cameraIndex" : 0,
               "nodeIndex" : 4
            },
            "GOOGLE_geometry_data" : {
               "stats" : {
                  "centroid" : [ 0.006965299074491665, 0.05520924247026986, -0.001748334877353547 ],
                  "radius" : 1.271291769841281,
                  "stdev" : 0.6092681918999431
               },
               "visualCenterPoint" : [ 0.05011231336495161, -0.03411430627079878, 0.0013693028057063 ]
            },
            "GOOGLE_hemi_light" : {
               "groundColor" : [ 0.4745098039215686, 0.3333333333333333, 0.2823529411764706 ]
            }
         },
         "name" : "scene-0",
         "nodes" : [ 1, 4, 6 ]
      }
   ],
   "textures" : [
      {
         "name" : "None-texture",
         "sampler" : 0,
         "source" : 0
      }
   ]
}
