{
  "accessors": [
    {
      "bufferView": 2,
      "componentType": 5126,
      "count": 1042,
      "max": [
        1.3096499443054199,
        1.545199990272522,
        1.0574599504470825
      ],
      "min": [
        -1.0447100400924683,
        -1.1707799434661865,
        -1.2481199502944946
      ],
      "type": "VEC3"
    },
    {
      "bufferView": 2,
      "byteOffset": 12504,
      "componentType": 5126,
      "count": 1042,
      "max": [
        0.99976450204849243,
        0.99459695816040039,
        0.99993860721588135
      ],
      "min": [
        -0.99353885650634766,
        -0.99775612354278564,
        -0.99968719482421875
      ],
      "type": "VEC3"
    },
    {
      "bufferView": 3,
      "componentType": 5126,
      "count": 1042,
      "max": [
        0.99533265829086304,
        0.99933439493179321,
        0.99966621398925781,
        1
      ],
      "min": [
        -0.99745899438858032,
        -0.99392902851104736,
        -0.9908490777015686,
        -1
      ],
      "type": "VEC4"
    },
    {
      "bufferView": 1,
      "componentType": 5126,
      "count": 1042,
      "max": [
        0.9832800030708313,
        0.99971997737884521
      ],
      "min": [
        0.00028000000747852027,
        0.00028000000747852027
      ],
      "type": "VEC2"
    },
    {
      "bufferView": 0,
      "componentType": 5125,
      "count": 5118,
      "max": [
        1041
      ],
      "min": [
        0
      ],
      "type": "SCALAR"
    }
  ],
  "asset": {
    "extras": {
      "author": "ericdraw (https://sketchfab.com/ericdraw)",
      "license": "CC-BY-4.0 (http://creativecommons.org/licenses/by/4.0/)",
      "source": "https://sketchfab.com/models/ef88685dfc8c4942ab1c995b07fd10a2",
      "title": "Low poly rock"
    },
    "generator": "Sketchfab-3.19.2",
    "version": "2.0"
  },
  "bufferViews": [
    {
      "buffer": 0,
      "byteLength": 20472,
      "byteOffset": 0,
      "name": "floatBufferViews",
      "target": 34963
    },
    {
      "buffer": 0,
      "byteLength": 8336,
      "byteOffset": 20472,
      "byteStride": 8,
      "name": "floatBufferViews",
      "target": 34962
    },
    {
      "buffer": 0,
      "byteLength": 25008,
      "byteOffset": 28808,
      "byteStride": 12,
      "name": "floatBufferViews",
      "target": 34962
    },
    {
      "buffer": 0,
      "byteLength": 16672,
      "byteOffset": 53816,
      "byteStride": 16,
      "name": "floatBufferViews",
      "target": 34962
    }
  ],
  "buffers": [
    {
      "byteLength": 70488,
      "uri": "scene.bin"
    }
  ],
  "images": [
    {
      "uri": "textures/realist_normal.png"
    },
    {
      "uri": "textures/realist_baseColor.png"
    }
  ],
  "materials": [
    {
      "doubleSided": true,
      "emissiveFactor": [
        0,
        0,
        0
      ],
      "name": "realist",
      "normalTexture": {
        "index": 0,
        "scale": 1,
        "texCoord": 0
      },
      "pbrMetallicRoughness": {
        "baseColorFactor": [
          1,
          1,
          1,
          1
        ],
        "baseColorTexture": {
          "index": 1,
          "texCoord": 0
        },
        "metallicFactor": 0,
        "roughnessFactor": 0.59999999999999998
      }
    }
  ],
  "meshes": [
    {
      "name": "low.005_0",
      "primitives": [
        {
          "attributes": {
            "NORMAL": 1,
            "POSITION": 0,
            "TANGENT": 2,
            "TEXCOORD_0": 3
          },
          "indices": 4,
          "material": 0,
          "mode": 4
        }
      ]
    }
  ],
  "nodes": [
    {
      "children": [
        1
      ],
      "name": "RootNode (gltf orientation matrix)",
      "rotation": [
        -0.70710678118654746,
        -0,
        -0,
        0.70710678118654757
      ]
    },
    {
      "children": [
        2
      ],
      "name": "RootNode (model correction matrix)"
    },
    {
      "children": [
        3,
        5,
        7,
        9
      ],
      "name": "Root"
    },
    {
      "children": [
        4
      ],
      "matrix": [
        -0.53425999999999996,
        -0.55208000000000002,
        -0.64014000000000015,
        0,
        0.80690000000000006,
        -0.55878000000000005,
        -0.19151000000000004,
        0,
        -0.25197000000000003,
        -0.61884000000000017,
        0.74401000000000006,
        0,
        4.0762500000000008,
        1.00545,
        5.9038600000000008,
        1
      ],
      "name": "Lamp"
    },
    {
      "name": "Lamp"
    },
    {
      "children": [
        6
      ],
      "matrix": [
        1,
        0,
        0,
        0,
        0,
        1,
        0,
        0,
        0,
        0,
        1,
        0,
        4.0762500000000008,
        1.00545,
        5.9038600000000008,
        1
      ],
      "name": "Lamp.001"
    },
    {
      "name": "Lamp.001"
    },
    {
      "children": [
        8
      ],
      "matrix": [
        1,
        0,
        -0,
        0,
        0,
        -1,
        -0,
        0,
        -0,
        0,
        -1,
        0,
        4.0762500000000008,
        1.00545,
        5.9038600000000008,
        1
      ],
      "name": "Lamp.002"
    },
    {
      "name": "Lamp.002"
    },
    {
      "children": [
        10
      ],
      "matrix": [
        1.0496099999999999,
        0.26994000000000001,
        0.027180000000000006,
        0,
        -0.10228000000000001,
        0.29314000000000001,
        1.0387,
        0,
        0.25128999999999996,
        -1.0082100000000001,
        0.30928000000000005,
        0,
        -0.75824000000000014,
        -0.95303000000000004,
        0.75122000000000011,
        1
      ],
      "name": "low.005"
    },
    {
      "mesh": 0,
      "name": "low.005_0"
    }
  ],
  "samplers": [
    {
      "magFilter": 9729,
      "minFilter": 9987,
      "wrapS": 10497,
      "wrapT": 10497
    }
  ],
  "scene": 0,
  "scenes": [
    {
      "name": "OSG_Scene",
      "nodes": [
        0
      ]
    }
  ],
  "textures": [
    {
      "sampler": 0,
      "source": 0
    },
    {
      "sampler": 0,
      "source": 1
    }
  ]
}

