{
   "accessors" : [
      {
         "bufferView" : 2,
         "byteOffset" : 0,
         "componentType" : 5126,
         "count" : 4024,
         "max" : [ 1, 1, 1, 1 ],
         "min" : [ 0.006584956776350737, 0.006584956776350737, 0.006584956776350737, 1 ],
         "name" : "accessor_color_m0-PolyPaper22_-90946",
         "type" : "VEC4"
      },
      {
         "bufferView" : 2,
         "byteOffset" : 64384,
         "componentType" : 5126,
         "count" : 64,
         "max" : [ 1, 1, 1, 1 ],
         "min" : [ 1, 1, 1, 1 ],
         "name" : "accessor_color_m1-PolyGlass24_-90952",
         "type" : "VEC4"
      },
      {
         "bufferView" : 0,
         "byteOffset" : 0,
         "componentType" : 5123,
         "count" : 6702,
         "max" : [ 4023 ],
         "min" : [ 0 ],
         "name" : "accessor_indices_0_m0-PolyPaper22_-90946",
         "type" : "SCALAR"
      },
      {
         "bufferView" : 0,
         "byteOffset" : 13404,
         "componentType" : 5123,
         "count" : 96,
         "max" : [ 63 ],
         "min" : [ 0 ],
         "name" : "accessor_indices_0_m1-PolyGlass24_-90952",
         "type" : "SCALAR"
      },
      {
         "bufferView" : 1,
         "byteOffset" : 48288,
         "componentType" : 5126,
         "count" : 4024,
         "max" : [ 1, 1, 1 ],
         "min" : [ -1, -1, -1 ],
         "name" : "accessor_normal_m0-PolyPaper22_-90946",
         "type" : "VEC3"
      },
      {
         "bufferView" : 1,
         "byteOffset" : 97344,
         "componentType" : 5126,
         "count" : 64,
         "max" : [ 0.9999846999999999, 0.02732962, 0.005686789 ],
         "min" : [ -0.9999846999999999, -0.02732962, -0.02662954 ],
         "name" : "accessor_normal_m1-PolyGlass24_-90952",
         "type" : "VEC3"
      },
      {
         "bufferView" : 1,
         "byteOffset" : 0,
         "componentType" : 5126,
         "count" : 4024,
         "max" : [ 4.764297, 0.08443702, 2.367815 ],
         "min" : [ 2.558272, -1.654307, -2.025013 ],
         "name" : "accessor_position_m0-PolyPaper22_-90946",
         "type" : "VEC3"
      },
      {
         "bufferView" : 1,
         "byteOffset" : 96576,
         "componentType" : 5126,
         "count" : 64,
         "max" : [ 2.9137, -0.4850132, -0.5308769 ],
         "min" : [ 2.887989, -1.278468, -1.617933 ],
         "name" : "accessor_position_m1-PolyGlass24_-90952",
         "type" : "VEC3"
      }
   ],
   "asset" : {
      "copyright" : "Unknown",
      "extras" : {
         "GOOGLE_processor_version" : 294144208
      },
      "generator" : "glTF 1-to-2 Upgrader for Google Blocks",
      "version" : "2.0"
   },
   "bufferViews" : [
      {
         "buffer" : 0,
         "byteLength" : 13596,
         "byteOffset" : 0,
         "name" : "ushortBufferView",
         "target" : 34963
      },
      {
         "buffer" : 0,
         "byteLength" : 98112,
         "byteOffset" : 13596,
         "byteStride" : 12,
         "name" : "vec3BufferView",
         "target" : 34962
      },
      {
         "buffer" : 0,
         "byteLength" : 65408,
         "byteOffset" : 111708,
         "byteStride" : 16,
         "name" : "vec4BufferView",
         "target" : 34962
      }
   ],
   "buffers" : [
      {
         "byteLength" : 177116,
         "name" : "model",
         "uri" : "model.bin"
      }
   ],
   "cameras" : [
      {
         "perspective" : {
            "yfov" : 0.7853981633974483,
            "znear" : 0.1000000014901161
         },
         "type" : "perspective"
      }
   ],
   "extensions" : {
      "KHR_lights_punctual" : {
         "lights" : [
            {
               "color" : [ 1, 0.9333333333333333, 0.8666666666666667 ],
               "intensity" : 0.25,
               "name" : "headLight",
               "type" : "directional"
            },
            {
               "color" : [ 1, 0.9333333333333333, 0.8666666666666667 ],
               "intensity" : 0.324999988079071,
               "name" : "keyLight",
               "type" : "directional"
            }
         ]
      }
   },
   "extensionsUsed" : [ "GOOGLE_backgrounds", "GOOGLE_camera_settings", "KHR_lights_punctual" ],
   "extras" : {
      "GOOGLE_initial_camera_motion" : {
         "motionPath" : "FULL_ROTATION"
      },
      "GOOGLE_lighting_rig" : {
         "disableShadows" : false
      }
   },
   "materials" : [
      {
         "alphaMode" : "OPAQUE",
         "doubleSided" : false,
         "name" : "BlocksPaper",
         "pbrMetallicRoughness" : {
            "baseColorFactor" : [ 1, 1, 1, 1 ],
            "metallicFactor" : 0,
            "roughnessFactor" : 0.6
         }
      },
      {
         "alphaMode" : "BLEND",
         "doubleSided" : false,
         "name" : "BlocksGlass",
         "pbrMetallicRoughness" : {
            "baseColorFactor" : [ 0.2, 0.2, 1, 0.3 ],
            "metallicFactor" : 1,
            "roughnessFactor" : 0.4
         }
      },
      {
         "alphaMode" : "OPAQUE",
         "doubleSided" : true,
         "name" : "BlocksGem",
         "pbrMetallicRoughness" : {
            "baseColorFactor" : [ 1, 0.4, 1, 1 ],
            "metallicFactor" : 0,
            "roughnessFactor" : 0.1
         }
      }
   ],
   "meshes" : [
      {
         "name" : "mesh_m0-PolyPaper22_-90946",
         "primitives" : [
            {
               "attributes" : {
                  "COLOR_0" : 0,
                  "NORMAL" : 4,
                  "POSITION" : 6
               },
               "indices" : 2,
               "material" : 0,
               "mode" : 4
            }
         ]
      },
      {
         "name" : "mesh_m1-PolyGlass24_-90952",
         "primitives" : [
            {
               "attributes" : {
                  "COLOR_0" : 1,
                  "NORMAL" : 5,
                  "POSITION" : 7
               },
               "indices" : 3,
               "material" : 1,
               "mode" : 4
            }
         ]
      }
   ],
   "nodes" : [
      {
         "mesh" : 0,
         "name" : "node_MeshObject1231792128-PolyPaper22"
      },
      {
         "mesh" : 1,
         "name" : "node_MeshObject1803871232-PolyGlass24"
      },
      {
         "children" : [ 3 ]
      },
      {
         "children" : [ 4 ],
         "extras" : {
            "isTransformNode" : 1
         },
         "translation" : [ 3.642066988594685, -0.8714329634997093, 0.2035924467904991 ]
      },
      {
         "children" : [ 0, 1 ],
         "translation" : [ -3.642066988594685, 0.8714329634997093, -0.2035924467904991 ]
      },
      {
         "camera" : 0,
         "children" : [ 6 ],
         "rotation" : [
            -0.006704364715708165,
            0.741975303179032,
            -0.007420681142922413,
            -0.6703526194903078
         ],
         "translation" : [ -0.8887281898495076, -1.135938826541838, -0.3126275234934023 ]
      },
      {
         "extensions" : {
            "KHR_lights_punctual" : {
               "light" : 0
            }
         },
         "extras" : {
            "isHeadLight" : 1
         },
         "name" : "headLightNode",
         "translation" : [ -3.904962038175729, 1.952481019087864, 1.952481019087864 ]
      },
      {
         "extensions" : {
            "KHR_lights_punctual" : {
               "light" : 1
            }
         },
         "extras" : {
            "isKeyLight" : 1
         },
         "name" : "keyLightNode",
         "rotation" : [ -0.7505326882858236, -0.3752663441429118, 0, 0.5439447166468927 ],
         "scale" : [ 0, 0, 3.944011658557486 ],
         "translation" : [ -0.8141544409451544, 6.867278939030623, -4.663907713245933 ]
      }
   ],
   "scene" : 0,
   "scenes" : [
      {
         "extensions" : {
            "GOOGLE_backgrounds" : {
               "color" : [ 0.9803921568627451, 0.9803921568627451, 0.9803921568627451 ]
            },
            "GOOGLE_camera_settings" : {
               "pivot" : [ 3.651621761363573, -1.044643006822997, 0.1490648564931087 ]
            }
         },
         "extras" : {
            "GOOGLE_camera_index" : {
               "cameraIndex" : 0,
               "nodeIndex" : 5
            },
            "GOOGLE_geometry_data" : {
               "stats" : {
                  "centroid" : [ 3.129857217612332, -1.02074437808435, -0.7198960546884479 ],
                  "radius" : 3.904962038175729,
                  "stdev" : 1.144831287593914
               },
               "visualCenterPoint" : [ 3.642066988594685, -0.8714329634997093, 0.2035924467904991 ]
            },
            "GOOGLE_hemi_light" : {
               "groundColor" : [ 0.9803921568627451, 0.9803921568627451, 0.9803921568627451 ]
            }
         },
         "name" : "defaultScene",
         "nodes" : [ 2, 5, 7 ]
      }
   ]
}
